<svg width="200" height="200" viewBox="0 0 200 200" fill="none" xmlns="http://www.w3.org/2000/svg">
<g clip-path="url(#clip0_11_62)">
<g filter="url(#filter0_d_11_62)">
<path d="M186.667 0H13.3333C5.96954 0 0 5.96954 0 13.3333V186.667C0 194.03 5.96954 200 13.3333 200H186.667C194.03 200 200 194.03 200 186.667V13.3333C200 5.96954 194.03 0 186.667 0Z" fill="#222329"/>
<path d="M186.667 3.3335H13.3333C7.8104 3.3335 3.33325 7.81065 3.33325 13.3335V186.667C3.33325 192.19 7.8104 196.667 13.3333 196.667H186.667C192.189 196.667 196.667 192.19 196.667 186.667V13.3335C196.667 7.81065 192.189 3.3335 186.667 3.3335Z" stroke="#ADAEB0" stroke-width="3" stroke-linecap="round" stroke-linejoin="round" stroke-dasharray="10 10"/>
</g>
<path d="M144 107H106.283V146H93.7121V107H56V94H93.7121V55H106.283V94H143.995L144 107Z" fill="#ADAEB0"/>
</g>
<defs>
<filter id="filter0_d_11_62" x="-6" y="-3" width="212" height="212" filterUnits="userSpaceOnUse" color-interpolation-filters="sRGB">
<feFlood flood-opacity="0" result="BackgroundImageFix"/>
<feColorMatrix in="SourceAlpha" type="matrix" values="0 0 0 0 0 0 0 0 0 0 0 0 0 0 0 0 0 0 127 0" result="hardAlpha"/>
<feOffset dy="3"/>
<feGaussianBlur stdDeviation="3"/>
<feColorMatrix type="matrix" values="0 0 0 0 0 0 0 0 0 0 0 0 0 0 0 0 0 0 0.161 0"/>
<feBlend mode="normal" in2="BackgroundImageFix" result="effect1_dropShadow_11_62"/>
<feBlend mode="normal" in="SourceGraphic" in2="effect1_dropShadow_11_62" result="shape"/>
</filter>
<clipPath id="clip0_11_62">
<rect width="200" height="200" fill="white"/>
</clipPath>
</defs>
</svg>
